<svg xmlns="http://www.w3.org/2000/svg" width="256" height="256" id="spiderman"><path fill="#B71C1C" d="M128 247.322C62.1 247.322 8.678 193.9 8.678 128 8.678 194.274 62.1 248 128 248s119.322-53.726 119.322-120c0 65.9-53.422 119.322-119.322 119.322z" opacity=".2"></path><path fill="#FFF" d="M128 8.678C193.9 8.678 247.322 62.1 247.322 128 247.322 61.726 193.9 8 128 8S8.678 61.726 8.678 128C8.678 62.1 62.1 8.678 128 8.678z" opacity=".2"></path><circle cx="128" cy="128" r="119.322" fill="#F44336"></circle><linearGradient id="a" x1="165.111" x2="236.369" y1="117.108" y2="188.366" gradientUnits="userSpaceOnUse"><stop offset="0" stop-color="#212121" stop-opacity=".2"></stop><stop offset="1" stop-color="#212121" stop-opacity="0"></stop></linearGradient><path fill="url(#a)" d="M203.563 85.313s-20.855 26.337-46.774 47.092c-7.447 5.963-15.365 11.66-23.419 16.444 2.153 6.487 6.681 13.609 12.242 18.999.339.35.683.694 1.032 1.032.339.35 53.797 53.796 53.875 53.875 27.443-21.035 45.482-53.718 46.727-90.664-.004-.028.033-1.84.033-1.84"></path><linearGradient id="b" x1="39.225" x2="180.154" y1="101.556" y2="242.486" gradientUnits="userSpaceOnUse"><stop offset="0" stop-color="#212121" stop-opacity=".2"></stop><stop offset="1" stop-color="#212121" stop-opacity="0"></stop></linearGradient><path fill="url(#b)" d="M123.662 149.88c-.384-.228-.765-.468-1.148-.7.038-.11.08-.222.117-.332-8.054-4.784-15.972-10.481-23.419-16.444a294.376 294.376 0 0 1-8.539-7.12c-.266-.311-.416-.489-.416-.489l-.016.116-.128-.111c-.581-.672-.888-1.037-.888-1.037l-.02.149c-.658-.761-1.012-1.18-1.012-1.18l-.02.149c-.659-.761-1.012-1.18-1.012-1.18l-.02.149c-.658-.761-1.012-1.18-1.012-1.18l-.02.149c-.658-.761-1.012-1.18-1.012-1.18l-.02.149c-.658-.761-1.012-1.18-1.012-1.18l-.02.149c-.658-.761-1.012-1.18-1.012-1.18l-.02.149c-.658-.761-1.012-1.18-1.012-1.18l-.02.149c-.658-.761-1.012-1.18-1.012-1.18l-.02.149c-.658-.761-1.012-1.18-1.012-1.18l-.02.149c-.658-.761-1.012-1.18-1.012-1.18l-.02.149c-.658-.761-1.012-1.18-1.012-1.18l-.02.149c-.658-.761-1.012-1.18-1.012-1.18l-.02.149c-.658-.761-1.012-1.18-1.012-1.18l-.02.149c-.658-.761-1.012-1.18-1.012-1.18l-.02.149c-.658-.761-1.012-1.18-1.012-1.18l-.02.149c-.658-.761-1.012-1.18-1.012-1.18l-.02.149c-.658-.761-1.012-1.18-1.012-1.18l-.02.149c-.658-.761-1.012-1.18-1.012-1.18l-.02.149c-.658-.761-1.012-1.18-1.012-1.18l-.02.149c-.658-.761-1.012-1.18-1.012-1.18l-.02.149c-.658-.761-1.012-1.18-1.012-1.18l-.02.149c-.659-.761-1.012-1.18-1.012-1.18l-.019.149c-.658-.761-1.012-1.18-1.012-1.18l-.019.149c-.659-.761-1.012-1.18-1.012-1.18l-.019.149c-.659-.761-1.012-1.18-1.012-1.18l-.019.149c-.659-.761-1.012-1.18-1.012-1.18l-.019.149c-.659-.761-1.012-1.18-1.012-1.18l-.019.149c-.659-.761-1.012-1.18-1.012-1.18l-.019.149c-.659-.761-1.012-1.18-1.012-1.18l-.019.149c-.659-.761-1.012-1.18-1.012-1.18l-.019.149c-.659-.761-1.012-1.18-1.012-1.18l-.019.149c-.659-.761-1.012-1.18-1.012-1.18l-.019.149c-.659-.761-1.012-1.18-1.012-1.18l-.019.149c-.659-.761-1.012-1.18-1.012-1.18l-.019.149c-.659-.761-1.012-1.18-1.012-1.18s-1.212 8.901-1.239 21.086c-.016 7.136.373 15.396 1.652 23.66 2.081 13.243 6.52 26.478 15.38 34.937.338.35 78.044 78.06 78.396 78.396l.016.016c18.724-3.05 35.981-10.455 50.703-21.144-.069-.061-74.401-74.639-74.364-74.749z"></path><g stroke-miterlimit="10" stroke-width="2"><path fill="none" stroke="#212121" d="M99.211 132.405c-25.919-20.756-46.09-44.744-46.09-44.744s-1.212 8.901-1.239 21.086c.05-11.817 1.239-20.408 1.239-20.408s20.171 23.625 46.09 44.066z"></path><path fill="#FFF" stroke="#000" d="M93.014 176.475c12.292 0 25.432-15.019 29.617-27.626-8.054-4.784-15.972-10.481-23.419-16.444-25.919-20.441-46.09-44.066-46.09-44.066s-1.189 8.591-1.239 20.408c-.016 7.136.373 15.396 1.652 23.66 3.46 22.034 13.434 44.067 39.479 44.068z"></path><path fill="none" stroke="#212121" d="M202.879 88.339s1.189 8.592 1.239 20.409c-.027-12.185-1.239-21.087-1.239-21.087s-20.171 23.988-46.09 44.744c25.919-20.441 46.09-44.066 46.09-44.066z"></path><path fill="#FFF" stroke="#000" d="M202.879 88.339s-20.171 23.625-46.09 44.066c-7.447 5.963-15.365 11.66-23.419 16.444 4.184 12.607 17.324 27.626 29.616 27.626 26.045 0 36.018-22.034 39.48-44.068 1.279-8.263 1.668-16.523 1.652-23.658-.05-11.819-1.239-20.41-1.239-20.41z"></path></g></svg>